<mxfile host="app.diagrams.net" modified="2023-09-19T05:42:55.197Z" agent="Mozilla/5.0 (Windows NT 10.0; Win64; x64) AppleWebKit/537.36 (KHTML, like Gecko) Chrome/116.0.0.0 Safari/537.36" etag="0MrUaCe5qWV-VXaZKsGq" version="21.7.5" type="github">
  <diagram id="6a731a19-8d31-9384-78a2-239565b7b9f0" name="Page-1">
    <mxGraphModel dx="1644" dy="874" grid="1" gridSize="10" guides="1" tooltips="1" connect="1" arrows="1" fold="1" page="1" pageScale="1" pageWidth="827" pageHeight="1169" background="none" math="0" shadow="0">
      <root>
        <mxCell id="0" />
        <mxCell id="1" parent="0" />
        <mxCell id="2093" value="" style="rounded=1;whiteSpace=wrap;html=1;strokeColor=none;fillColor=#BAC8D3;fontSize=24;fontColor=#23445D;align=center;opacity=60;" parent="1" vertex="1">
          <mxGeometry x="20" y="400" width="340" height="300" as="geometry" />
        </mxCell>
        <mxCell id="OwLZ5ZEIKpHCfhwcD4dx-2275" value="" style="shape=mxgraph.cisco.servers.standard_host;sketch=0;html=1;pointerEvents=1;dashed=0;fillColor=#036897;strokeColor=#ffffff;strokeWidth=4;verticalLabelPosition=bottom;verticalAlign=top;align=center;outlineConnect=0;" parent="1" vertex="1">
          <mxGeometry x="36.5" y="840" width="67" height="92" as="geometry" />
        </mxCell>
        <mxCell id="OwLZ5ZEIKpHCfhwcD4dx-2276" value="" style="shape=mxgraph.cisco.servers.standard_host;sketch=0;html=1;pointerEvents=1;dashed=0;fillColor=#036897;strokeColor=#ffffff;strokeWidth=4;verticalLabelPosition=bottom;verticalAlign=top;align=center;outlineConnect=0;" parent="1" vertex="1">
          <mxGeometry x="116.5" y="840" width="67" height="92" as="geometry" />
        </mxCell>
        <mxCell id="OwLZ5ZEIKpHCfhwcD4dx-2277" value="" style="shape=mxgraph.cisco.servers.standard_host;sketch=0;html=1;pointerEvents=1;dashed=0;fillColor=#036897;strokeColor=#ffffff;strokeWidth=4;verticalLabelPosition=bottom;verticalAlign=top;align=center;outlineConnect=0;" parent="1" vertex="1">
          <mxGeometry x="206.5" y="840" width="67" height="92" as="geometry" />
        </mxCell>
        <mxCell id="OwLZ5ZEIKpHCfhwcD4dx-2278" value="" style="shape=mxgraph.cisco.servers.standard_host;sketch=0;html=1;pointerEvents=1;dashed=0;fillColor=#036897;strokeColor=#ffffff;strokeWidth=4;verticalLabelPosition=bottom;verticalAlign=top;align=center;outlineConnect=0;" parent="1" vertex="1">
          <mxGeometry x="273.5" y="840" width="67" height="92" as="geometry" />
        </mxCell>
        <mxCell id="OwLZ5ZEIKpHCfhwcD4dx-2279" value="" style="shape=mxgraph.cisco.switches.layer_3_switch;sketch=0;html=1;pointerEvents=1;fillColor=#036897;strokeColor=#ffffff;strokeWidth=4;verticalLabelPosition=bottom;verticalAlign=top;align=center;outlineConnect=0;" parent="1" vertex="1">
          <mxGeometry x="56" y="594" width="64" height="64" as="geometry" />
        </mxCell>
        <mxCell id="OwLZ5ZEIKpHCfhwcD4dx-2280" value="" style="shape=mxgraph.cisco.security.firewall;sketch=0;html=1;pointerEvents=1;fillColor=#036897;strokeColor=#ffffff;strokeWidth=4;verticalLabelPosition=bottom;verticalAlign=top;align=center;outlineConnect=0;" parent="1" vertex="1">
          <mxGeometry x="73.5" y="420" width="29" height="77" as="geometry" />
        </mxCell>
        <mxCell id="OwLZ5ZEIKpHCfhwcD4dx-2282" value="" style="shape=mxgraph.cisco.security.firewall;sketch=0;html=1;pointerEvents=1;fillColor=#036897;strokeColor=#ffffff;strokeWidth=4;verticalLabelPosition=bottom;verticalAlign=top;align=center;outlineConnect=0;" parent="1" vertex="1">
          <mxGeometry x="291" y="420" width="29" height="77" as="geometry" />
        </mxCell>
        <mxCell id="OwLZ5ZEIKpHCfhwcD4dx-2283" value="" style="endArrow=none;html=1;rounded=0;strokeWidth=4;" parent="1" source="OwLZ5ZEIKpHCfhwcD4dx-2280" target="OwLZ5ZEIKpHCfhwcD4dx-2282" edge="1">
          <mxGeometry width="50" height="50" relative="1" as="geometry">
            <mxPoint x="171" y="550" as="sourcePoint" />
            <mxPoint x="221" y="500" as="targetPoint" />
          </mxGeometry>
        </mxCell>
        <mxCell id="OwLZ5ZEIKpHCfhwcD4dx-2284" value="" style="endArrow=none;html=1;rounded=0;strokeWidth=4;" parent="1" source="OwLZ5ZEIKpHCfhwcD4dx-2279" target="OwLZ5ZEIKpHCfhwcD4dx-2280" edge="1">
          <mxGeometry width="50" height="50" relative="1" as="geometry">
            <mxPoint x="99" y="560" as="sourcePoint" />
            <mxPoint x="149" y="510" as="targetPoint" />
          </mxGeometry>
        </mxCell>
        <mxCell id="OwLZ5ZEIKpHCfhwcD4dx-2287" value="" style="shape=mxgraph.cisco.switches.layer_3_switch;sketch=0;html=1;pointerEvents=1;fillColor=#036897;strokeColor=#ffffff;strokeWidth=4;verticalLabelPosition=bottom;verticalAlign=top;align=center;outlineConnect=0;" parent="1" vertex="1">
          <mxGeometry x="273.5" y="594" width="64" height="64" as="geometry" />
        </mxCell>
        <mxCell id="OwLZ5ZEIKpHCfhwcD4dx-2290" value="" style="endArrow=none;html=1;rounded=0;exitX=0.5;exitY=0;exitDx=0;exitDy=0;exitPerimeter=0;entryX=0;entryY=1;entryDx=0;entryDy=0;entryPerimeter=0;strokeWidth=4;" parent="1" source="OwLZ5ZEIKpHCfhwcD4dx-2279" target="OwLZ5ZEIKpHCfhwcD4dx-2282" edge="1">
          <mxGeometry width="50" height="50" relative="1" as="geometry">
            <mxPoint x="231" y="547" as="sourcePoint" />
            <mxPoint x="281" y="497" as="targetPoint" />
          </mxGeometry>
        </mxCell>
        <mxCell id="OwLZ5ZEIKpHCfhwcD4dx-2291" value="" style="endArrow=none;html=1;rounded=0;entryX=0.5;entryY=1;entryDx=0;entryDy=0;entryPerimeter=0;exitX=0.5;exitY=0;exitDx=0;exitDy=0;exitPerimeter=0;strokeWidth=4;" parent="1" source="OwLZ5ZEIKpHCfhwcD4dx-2287" target="OwLZ5ZEIKpHCfhwcD4dx-2280" edge="1">
          <mxGeometry width="50" height="50" relative="1" as="geometry">
            <mxPoint x="570" y="710" as="sourcePoint" />
            <mxPoint x="620" y="660" as="targetPoint" />
          </mxGeometry>
        </mxCell>
        <mxCell id="OwLZ5ZEIKpHCfhwcD4dx-2294" value="" style="endArrow=none;html=1;rounded=0;entryX=0.5;entryY=1;entryDx=0;entryDy=0;entryPerimeter=0;strokeWidth=4;" parent="1" source="OwLZ5ZEIKpHCfhwcD4dx-2287" target="OwLZ5ZEIKpHCfhwcD4dx-2282" edge="1">
          <mxGeometry width="50" height="50" relative="1" as="geometry">
            <mxPoint x="570" y="710" as="sourcePoint" />
            <mxPoint x="620" y="660" as="targetPoint" />
          </mxGeometry>
        </mxCell>
        <mxCell id="OwLZ5ZEIKpHCfhwcD4dx-2295" value="" style="endArrow=none;html=1;rounded=0;strokeWidth=4;" parent="1" edge="1">
          <mxGeometry width="50" height="50" relative="1" as="geometry">
            <mxPoint x="20" y="760" as="sourcePoint" />
            <mxPoint x="430" y="760" as="targetPoint" />
          </mxGeometry>
        </mxCell>
        <mxCell id="OwLZ5ZEIKpHCfhwcD4dx-2296" value="" style="endArrow=none;html=1;rounded=0;entryX=0.25;entryY=1;entryDx=0;entryDy=0;strokeWidth=4;" parent="1" target="2093" edge="1">
          <mxGeometry width="50" height="50" relative="1" as="geometry">
            <mxPoint x="105" y="760" as="sourcePoint" />
            <mxPoint x="620" y="660" as="targetPoint" />
          </mxGeometry>
        </mxCell>
        <mxCell id="OwLZ5ZEIKpHCfhwcD4dx-2297" value="" style="endArrow=none;html=1;rounded=0;entryX=0.25;entryY=1;entryDx=0;entryDy=0;strokeWidth=4;" parent="1" edge="1">
          <mxGeometry width="50" height="50" relative="1" as="geometry">
            <mxPoint x="291" y="760" as="sourcePoint" />
            <mxPoint x="291" y="700" as="targetPoint" />
          </mxGeometry>
        </mxCell>
        <mxCell id="OwLZ5ZEIKpHCfhwcD4dx-2298" value="" style="endArrow=none;html=1;rounded=0;entryX=0.25;entryY=1;entryDx=0;entryDy=0;strokeWidth=4;" parent="1" source="OwLZ5ZEIKpHCfhwcD4dx-2275" edge="1">
          <mxGeometry width="50" height="50" relative="1" as="geometry">
            <mxPoint x="72.97" y="820" as="sourcePoint" />
            <mxPoint x="72.97" y="760" as="targetPoint" />
          </mxGeometry>
        </mxCell>
        <mxCell id="OwLZ5ZEIKpHCfhwcD4dx-2300" value="" style="endArrow=none;html=1;rounded=0;entryX=0.25;entryY=1;entryDx=0;entryDy=0;strokeWidth=4;" parent="1" source="OwLZ5ZEIKpHCfhwcD4dx-2278" edge="1">
          <mxGeometry width="50" height="50" relative="1" as="geometry">
            <mxPoint x="310.03" y="829" as="sourcePoint" />
            <mxPoint x="310" y="760" as="targetPoint" />
          </mxGeometry>
        </mxCell>
        <mxCell id="OwLZ5ZEIKpHCfhwcD4dx-2301" value="" style="endArrow=none;html=1;rounded=0;entryX=0.25;entryY=1;entryDx=0;entryDy=0;strokeWidth=4;" parent="1" source="OwLZ5ZEIKpHCfhwcD4dx-2277" edge="1">
          <mxGeometry width="50" height="50" relative="1" as="geometry">
            <mxPoint x="240.03" y="829" as="sourcePoint" />
            <mxPoint x="240" y="760" as="targetPoint" />
          </mxGeometry>
        </mxCell>
        <mxCell id="OwLZ5ZEIKpHCfhwcD4dx-2302" value="" style="endArrow=none;html=1;rounded=0;entryX=0.25;entryY=1;entryDx=0;entryDy=0;strokeWidth=4;exitX=0.637;exitY=0.072;exitDx=0;exitDy=0;exitPerimeter=0;" parent="1" source="OwLZ5ZEIKpHCfhwcD4dx-2276" edge="1">
          <mxGeometry width="50" height="50" relative="1" as="geometry">
            <mxPoint x="160.03" y="829" as="sourcePoint" />
            <mxPoint x="160" y="760" as="targetPoint" />
          </mxGeometry>
        </mxCell>
      </root>
    </mxGraphModel>
  </diagram>
</mxfile>
